<?xml version="1.0" encoding="utf-8"?>
<!-- Generator: Adobe Illustrator 26.0.0, SVG Export Plug-In . SVG Version: 6.00 Build 0)  -->
<svg version="1.1" id="图层_1" xmlns="http://www.w3.org/2000/svg" xmlns:xlink="http://www.w3.org/1999/xlink" x="0px" y="0px"
	 viewBox="0 0 841.9 595.3" style="enable-background:new 0 0 841.9 595.3;" xml:space="preserve">
<style type="text/css">
	.st0{fill:#FFFFFF;stroke:#000000;stroke-miterlimit:10;}
	.st1{fill:none;stroke:#000000;stroke-miterlimit:10;}
</style>
<rect x="19.8" y="106.6" class="st0" width="677.5" height="175.8"/>
<g>
	<rect x="25.5" y="110.9" class="st1" width="14.2" height="14.2"/>
	<rect x="46.5" y="110.9" class="st1" width="14.2" height="14.2"/>
	<rect x="67.5" y="110.9" class="st1" width="14.2" height="14.2"/>
	<rect x="88.6" y="110.9" class="st1" width="14.2" height="14.2"/>
	<rect x="109.6" y="110.9" class="st1" width="14.2" height="14.2"/>
	<rect x="130.6" y="110.9" class="st1" width="14.2" height="14.2"/>
	<rect x="151.7" y="110.9" class="st1" width="14.2" height="14.2"/>
	<rect x="172.7" y="110.9" class="st1" width="14.2" height="14.2"/>
	<rect x="193.7" y="110.9" class="st1" width="14.2" height="14.2"/>
	<rect x="214.8" y="110.9" class="st1" width="14.2" height="14.2"/>
	<rect x="235.8" y="110.9" class="st1" width="14.2" height="14.2"/>
	<rect x="256.8" y="110.9" class="st1" width="14.2" height="14.2"/>
	<rect x="277.9" y="110.9" class="st1" width="14.2" height="14.2"/>
	<rect x="298.9" y="110.9" class="st1" width="14.2" height="14.2"/>
	<rect x="319.9" y="110.9" class="st1" width="14.2" height="14.2"/>
	<rect x="341" y="110.9" class="st1" width="14.2" height="14.2"/>
	<rect x="362" y="110.9" class="st1" width="14.2" height="14.2"/>
	<rect x="383" y="110.9" class="st1" width="14.2" height="14.2"/>
	<rect x="404.1" y="110.9" class="st1" width="14.2" height="14.2"/>
	<rect x="425.1" y="110.9" class="st1" width="14.2" height="14.2"/>
	<rect x="446.1" y="110.9" class="st1" width="14.2" height="14.2"/>
	<rect x="467.2" y="110.9" class="st1" width="14.2" height="14.2"/>
	<rect x="488.2" y="110.9" class="st1" width="14.2" height="14.2"/>
	<rect x="509.2" y="110.9" class="st1" width="14.2" height="14.2"/>
	<rect x="530.3" y="110.9" class="st1" width="14.2" height="14.2"/>
	<rect x="551.3" y="110.9" class="st1" width="14.2" height="14.2"/>
	<rect x="572.3" y="110.9" class="st1" width="14.2" height="14.2"/>
	<rect x="593.4" y="110.9" class="st1" width="14.2" height="14.2"/>
	<rect x="614.4" y="110.9" class="st1" width="14.2" height="14.2"/>
	<rect x="635.4" y="110.9" class="st1" width="14.2" height="14.2"/>
	<rect x="656.5" y="110.9" class="st1" width="14.2" height="14.2"/>
	<rect x="677.5" y="110.9" class="st1" width="14.2" height="14.2"/>
	<rect x="25.5" y="132.8" class="st1" width="14.2" height="14.2"/>
	<rect x="46.5" y="132.8" class="st1" width="14.2" height="14.2"/>
	<rect x="67.5" y="132.8" class="st1" width="14.2" height="14.2"/>
	<rect x="88.6" y="132.8" class="st1" width="14.2" height="14.2"/>
	<rect x="109.6" y="132.8" class="st1" width="14.2" height="14.2"/>
	<rect x="130.6" y="132.8" class="st1" width="14.2" height="14.2"/>
	<rect x="151.7" y="132.8" class="st1" width="14.2" height="14.2"/>
	<rect x="172.7" y="132.8" class="st1" width="14.2" height="14.2"/>
	<rect x="193.7" y="132.8" class="st1" width="14.2" height="14.2"/>
	<rect x="214.8" y="132.8" class="st1" width="14.2" height="14.2"/>
	<rect x="235.8" y="132.8" class="st1" width="14.2" height="14.2"/>
	<rect x="256.8" y="132.8" class="st1" width="14.2" height="14.2"/>
	<rect x="277.9" y="132.8" class="st1" width="14.2" height="14.2"/>
	<rect x="298.9" y="132.8" class="st1" width="14.2" height="14.2"/>
	<rect x="319.9" y="132.8" class="st1" width="14.2" height="14.2"/>
	<rect x="341" y="132.8" class="st1" width="14.2" height="14.2"/>
	<rect x="362" y="132.8" class="st1" width="14.2" height="14.2"/>
	<rect x="383" y="132.8" class="st1" width="14.2" height="14.2"/>
	<rect x="404.1" y="132.8" class="st1" width="14.2" height="14.2"/>
	<rect x="425.1" y="132.8" class="st1" width="14.2" height="14.2"/>
	<rect x="446.1" y="132.8" class="st1" width="14.2" height="14.2"/>
	<rect x="467.2" y="132.8" class="st1" width="14.2" height="14.2"/>
	<rect x="488.2" y="132.8" class="st1" width="14.2" height="14.2"/>
	<rect x="509.2" y="132.8" class="st1" width="14.2" height="14.2"/>
	<rect x="530.3" y="132.8" class="st1" width="14.2" height="14.2"/>
	<rect x="551.3" y="132.8" class="st1" width="14.2" height="14.2"/>
	<rect x="572.3" y="132.8" class="st1" width="14.2" height="14.2"/>
	<rect x="593.4" y="132.8" class="st1" width="14.2" height="14.2"/>
	<rect x="614.4" y="132.8" class="st1" width="14.2" height="14.2"/>
	<rect x="635.4" y="132.8" class="st1" width="14.2" height="14.2"/>
	<rect x="656.5" y="132.8" class="st1" width="14.2" height="14.2"/>
	<rect x="677.5" y="132.8" class="st1" width="14.2" height="14.2"/>
	<rect x="25.5" y="154.6" class="st1" width="14.2" height="14.2"/>
	<rect x="46.5" y="154.6" class="st1" width="14.2" height="14.2"/>
	<rect x="67.5" y="154.6" class="st1" width="14.2" height="14.2"/>
	<rect x="88.6" y="154.6" class="st1" width="14.2" height="14.2"/>
	<rect x="109.6" y="154.6" class="st1" width="14.2" height="14.2"/>
	<rect x="130.6" y="154.6" class="st1" width="14.2" height="14.2"/>
	<rect x="151.7" y="154.6" class="st1" width="14.2" height="14.2"/>
	<rect x="172.7" y="154.6" class="st1" width="14.2" height="14.2"/>
	<rect x="193.7" y="154.6" class="st1" width="14.2" height="14.2"/>
	<rect x="214.8" y="154.6" class="st1" width="14.2" height="14.2"/>
	<rect x="235.8" y="154.6" class="st1" width="14.2" height="14.2"/>
	<rect x="256.8" y="154.6" class="st1" width="14.2" height="14.2"/>
	<rect x="277.9" y="154.6" class="st1" width="14.2" height="14.2"/>
	<rect x="298.9" y="154.6" class="st1" width="14.2" height="14.2"/>
	<rect x="319.9" y="154.6" class="st1" width="14.2" height="14.2"/>
	<rect x="341" y="154.6" class="st1" width="14.2" height="14.2"/>
	<rect x="362" y="154.6" class="st1" width="14.2" height="14.2"/>
	<rect x="383" y="154.6" class="st1" width="14.2" height="14.2"/>
	<rect x="404.1" y="154.6" class="st1" width="14.2" height="14.2"/>
	<rect x="425.1" y="154.6" class="st1" width="14.2" height="14.2"/>
	<rect x="446.1" y="154.6" class="st1" width="14.2" height="14.2"/>
	<rect x="467.2" y="154.6" class="st1" width="14.2" height="14.2"/>
	<rect x="488.2" y="154.6" class="st1" width="14.2" height="14.2"/>
	<rect x="509.2" y="154.6" class="st1" width="14.2" height="14.2"/>
	<rect x="530.3" y="154.6" class="st1" width="14.2" height="14.2"/>
	<rect x="551.3" y="154.6" class="st1" width="14.2" height="14.2"/>
	<rect x="572.3" y="154.6" class="st1" width="14.2" height="14.2"/>
	<rect x="593.4" y="154.6" class="st1" width="14.2" height="14.2"/>
	<rect x="614.4" y="154.6" class="st1" width="14.2" height="14.2"/>
	<rect x="635.4" y="154.6" class="st1" width="14.2" height="14.2"/>
	<rect x="656.5" y="154.6" class="st1" width="14.2" height="14.2"/>
	<rect x="677.5" y="154.6" class="st1" width="14.2" height="14.2"/>
	<rect x="25.5" y="176.5" class="st1" width="14.2" height="14.2"/>
	<rect x="46.5" y="176.5" class="st1" width="14.2" height="14.2"/>
	<rect x="67.5" y="176.5" class="st1" width="14.2" height="14.2"/>
	<rect x="88.6" y="176.5" class="st1" width="14.2" height="14.2"/>
	<rect x="109.6" y="176.5" class="st1" width="14.2" height="14.2"/>
	<rect x="130.6" y="176.5" class="st1" width="14.2" height="14.2"/>
	<rect x="151.7" y="176.5" class="st1" width="14.2" height="14.2"/>
	<rect x="172.7" y="176.5" class="st1" width="14.2" height="14.2"/>
	<rect x="193.7" y="176.5" class="st1" width="14.2" height="14.2"/>
	<rect x="214.8" y="176.5" class="st1" width="14.2" height="14.2"/>
	<rect x="235.8" y="176.5" class="st1" width="14.2" height="14.2"/>
	<rect x="256.8" y="176.5" class="st1" width="14.2" height="14.2"/>
	<rect x="277.9" y="176.5" class="st1" width="14.2" height="14.2"/>
	<rect x="298.9" y="176.5" class="st1" width="14.2" height="14.2"/>
	<rect x="319.9" y="176.5" class="st1" width="14.2" height="14.2"/>
	<rect x="341" y="176.5" class="st1" width="14.2" height="14.2"/>
	<rect x="362" y="176.5" class="st1" width="14.2" height="14.2"/>
	<rect x="383" y="176.5" class="st1" width="14.2" height="14.2"/>
	<rect x="404.1" y="176.5" class="st1" width="14.2" height="14.2"/>
	<rect x="425.1" y="176.5" class="st1" width="14.2" height="14.2"/>
	<rect x="446.1" y="176.5" class="st1" width="14.2" height="14.2"/>
	<rect x="467.2" y="176.5" class="st1" width="14.2" height="14.2"/>
	<rect x="488.2" y="176.5" class="st1" width="14.2" height="14.2"/>
	<rect x="509.2" y="176.5" class="st1" width="14.2" height="14.2"/>
	<rect x="530.3" y="176.5" class="st1" width="14.2" height="14.2"/>
	<rect x="551.3" y="176.5" class="st1" width="14.2" height="14.2"/>
	<rect x="572.3" y="176.5" class="st1" width="14.2" height="14.2"/>
	<rect x="593.4" y="176.5" class="st1" width="14.2" height="14.2"/>
	<rect x="614.4" y="176.5" class="st1" width="14.2" height="14.2"/>
	<rect x="635.4" y="176.5" class="st1" width="14.2" height="14.2"/>
	<rect x="656.5" y="176.5" class="st1" width="14.2" height="14.2"/>
	<rect x="677.5" y="176.5" class="st1" width="14.2" height="14.2"/>
	<rect x="25.5" y="198.4" class="st1" width="14.2" height="14.2"/>
	<rect x="46.5" y="198.4" class="st1" width="14.2" height="14.2"/>
	<rect x="67.5" y="198.4" class="st1" width="14.2" height="14.2"/>
	<rect x="88.6" y="198.4" class="st1" width="14.2" height="14.2"/>
	<rect x="109.6" y="198.4" class="st1" width="14.2" height="14.2"/>
	<rect x="130.6" y="198.4" class="st1" width="14.2" height="14.2"/>
	<rect x="151.7" y="198.4" class="st1" width="14.2" height="14.2"/>
	<rect x="172.7" y="198.4" class="st1" width="14.2" height="14.2"/>
	<rect x="193.7" y="198.4" class="st1" width="14.2" height="14.2"/>
	<rect x="214.8" y="198.4" class="st1" width="14.2" height="14.2"/>
	<rect x="235.8" y="198.4" class="st1" width="14.2" height="14.2"/>
	<rect x="256.8" y="198.4" class="st1" width="14.2" height="14.2"/>
	<rect x="277.9" y="198.4" class="st1" width="14.2" height="14.2"/>
	<rect x="298.9" y="198.4" class="st1" width="14.2" height="14.2"/>
	<rect x="319.9" y="198.4" class="st1" width="14.2" height="14.2"/>
	<rect x="341" y="198.4" class="st1" width="14.2" height="14.2"/>
	<rect x="362" y="198.4" class="st1" width="14.2" height="14.2"/>
	<rect x="383" y="198.4" class="st1" width="14.2" height="14.2"/>
	<rect x="404.1" y="198.4" class="st1" width="14.2" height="14.2"/>
	<rect x="425.1" y="198.4" class="st1" width="14.2" height="14.2"/>
	<rect x="446.1" y="198.4" class="st1" width="14.2" height="14.2"/>
	<rect x="467.2" y="198.4" class="st1" width="14.2" height="14.2"/>
	<rect x="488.2" y="198.4" class="st1" width="14.2" height="14.2"/>
	<rect x="509.2" y="198.4" class="st1" width="14.2" height="14.2"/>
	<rect x="530.3" y="198.4" class="st1" width="14.2" height="14.2"/>
	<rect x="551.3" y="198.4" class="st1" width="14.2" height="14.2"/>
	<rect x="572.3" y="198.4" class="st1" width="14.2" height="14.2"/>
	<rect x="593.4" y="198.4" class="st1" width="14.2" height="14.2"/>
	<rect x="614.4" y="198.4" class="st1" width="14.2" height="14.2"/>
	<rect x="635.4" y="198.4" class="st1" width="14.2" height="14.2"/>
	<rect x="656.5" y="198.4" class="st1" width="14.2" height="14.2"/>
	<rect x="677.5" y="198.4" class="st1" width="14.2" height="14.2"/>
	<rect x="25.5" y="220.2" class="st1" width="14.2" height="14.2"/>
	<rect x="46.5" y="220.2" class="st1" width="14.2" height="14.2"/>
	<rect x="67.5" y="220.2" class="st1" width="14.2" height="14.2"/>
	<rect x="88.6" y="220.2" class="st1" width="14.2" height="14.2"/>
	<rect x="109.6" y="220.2" class="st1" width="14.2" height="14.2"/>
	<rect x="130.6" y="220.2" class="st1" width="14.2" height="14.2"/>
	<rect x="151.7" y="220.2" class="st1" width="14.2" height="14.2"/>
	<rect x="172.7" y="220.2" class="st1" width="14.2" height="14.2"/>
	<rect x="193.7" y="220.2" class="st1" width="14.2" height="14.2"/>
	<rect x="214.8" y="220.2" class="st1" width="14.2" height="14.2"/>
	<rect x="235.8" y="220.2" class="st1" width="14.2" height="14.2"/>
	<rect x="256.8" y="220.2" class="st1" width="14.2" height="14.2"/>
	<rect x="277.9" y="220.2" class="st1" width="14.2" height="14.2"/>
	<rect x="298.9" y="220.2" class="st1" width="14.2" height="14.2"/>
	<rect x="319.9" y="220.2" class="st1" width="14.2" height="14.2"/>
	<rect x="341" y="220.2" class="st1" width="14.2" height="14.2"/>
	<rect x="362" y="220.2" class="st1" width="14.2" height="14.2"/>
	<rect x="383" y="220.2" class="st1" width="14.2" height="14.2"/>
	<rect x="404.1" y="220.2" class="st1" width="14.2" height="14.2"/>
	<rect x="425.1" y="220.2" class="st1" width="14.2" height="14.2"/>
	<rect x="446.1" y="220.2" class="st1" width="14.2" height="14.2"/>
	<rect x="467.2" y="220.2" class="st1" width="14.2" height="14.2"/>
	<rect x="488.2" y="220.2" class="st1" width="14.2" height="14.2"/>
	<rect x="509.2" y="220.2" class="st1" width="14.2" height="14.2"/>
	<rect x="530.3" y="220.2" class="st1" width="14.2" height="14.2"/>
	<rect x="551.3" y="220.2" class="st1" width="14.2" height="14.2"/>
	<rect x="572.3" y="220.2" class="st1" width="14.2" height="14.2"/>
	<rect x="593.4" y="220.2" class="st1" width="14.2" height="14.2"/>
	<rect x="614.4" y="220.2" class="st1" width="14.2" height="14.2"/>
	<rect x="635.4" y="220.2" class="st1" width="14.2" height="14.2"/>
	<rect x="656.5" y="220.2" class="st1" width="14.2" height="14.2"/>
	<rect x="677.5" y="220.2" class="st1" width="14.2" height="14.2"/>
	<rect x="25.5" y="242.1" class="st1" width="14.2" height="14.2"/>
	<rect x="46.5" y="242.1" class="st1" width="14.2" height="14.2"/>
	<rect x="67.5" y="242.1" class="st1" width="14.2" height="14.2"/>
	<rect x="88.6" y="242.1" class="st1" width="14.2" height="14.2"/>
	<rect x="109.6" y="242.1" class="st1" width="14.2" height="14.2"/>
	<rect x="130.6" y="242.1" class="st1" width="14.2" height="14.2"/>
	<rect x="151.7" y="242.1" class="st1" width="14.2" height="14.2"/>
	<rect x="172.7" y="242.1" class="st1" width="14.2" height="14.2"/>
	<rect x="193.7" y="242.1" class="st1" width="14.2" height="14.2"/>
	<rect x="214.8" y="242.1" class="st1" width="14.2" height="14.2"/>
	<rect x="235.8" y="242.1" class="st1" width="14.2" height="14.2"/>
	<rect x="256.8" y="242.1" class="st1" width="14.2" height="14.2"/>
	<rect x="277.9" y="242.1" class="st1" width="14.2" height="14.2"/>
	<rect x="298.9" y="242.1" class="st1" width="14.2" height="14.2"/>
	<rect x="319.9" y="242.1" class="st1" width="14.2" height="14.2"/>
	<rect x="341" y="242.1" class="st1" width="14.2" height="14.2"/>
	<rect x="362" y="242.1" class="st1" width="14.2" height="14.2"/>
	<rect x="383" y="242.1" class="st1" width="14.2" height="14.2"/>
	<rect x="404.1" y="242.1" class="st1" width="14.2" height="14.2"/>
	<rect x="425.1" y="242.1" class="st1" width="14.2" height="14.2"/>
	<rect x="446.1" y="242.1" class="st1" width="14.2" height="14.2"/>
	<rect x="467.2" y="242.1" class="st1" width="14.2" height="14.2"/>
	<rect x="488.2" y="242.1" class="st1" width="14.2" height="14.2"/>
	<rect x="509.2" y="242.1" class="st1" width="14.2" height="14.2"/>
	<rect x="530.3" y="242.1" class="st1" width="14.2" height="14.2"/>
	<rect x="551.3" y="242.1" class="st1" width="14.2" height="14.2"/>
	<rect x="572.3" y="242.1" class="st1" width="14.2" height="14.2"/>
	<rect x="593.4" y="242.1" class="st1" width="14.2" height="14.2"/>
	<rect x="614.4" y="242.1" class="st1" width="14.2" height="14.2"/>
	<rect x="635.4" y="242.1" class="st1" width="14.2" height="14.2"/>
	<rect x="656.5" y="242.1" class="st1" width="14.2" height="14.2"/>
	<rect x="677.5" y="242.1" class="st1" width="14.2" height="14.2"/>
	<rect x="25.5" y="263.9" class="st1" width="14.2" height="14.2"/>
	<rect x="46.5" y="263.9" class="st1" width="14.2" height="14.2"/>
	<rect x="67.5" y="263.9" class="st1" width="14.2" height="14.2"/>
	<rect x="88.6" y="263.9" class="st1" width="14.2" height="14.2"/>
	<rect x="109.6" y="263.9" class="st1" width="14.2" height="14.2"/>
	<rect x="130.6" y="263.9" class="st1" width="14.2" height="14.2"/>
	<rect x="151.7" y="263.9" class="st1" width="14.2" height="14.2"/>
	<rect x="172.7" y="263.9" class="st1" width="14.2" height="14.2"/>
	<rect x="193.7" y="263.9" class="st1" width="14.2" height="14.2"/>
	<rect x="214.8" y="263.9" class="st1" width="14.2" height="14.2"/>
	<rect x="235.8" y="263.9" class="st1" width="14.2" height="14.2"/>
	<rect x="256.8" y="263.9" class="st1" width="14.2" height="14.2"/>
	<rect x="277.9" y="263.9" class="st1" width="14.2" height="14.2"/>
	<rect x="298.9" y="263.9" class="st1" width="14.2" height="14.2"/>
	<rect x="319.9" y="263.9" class="st1" width="14.2" height="14.2"/>
	<rect x="341" y="263.9" class="st1" width="14.2" height="14.2"/>
	<rect x="362" y="263.9" class="st1" width="14.2" height="14.2"/>
	<rect x="383" y="263.9" class="st1" width="14.2" height="14.2"/>
	<rect x="404.1" y="263.9" class="st1" width="14.2" height="14.2"/>
	<rect x="425.1" y="263.9" class="st1" width="14.2" height="14.2"/>
	<rect x="446.1" y="263.9" class="st1" width="14.2" height="14.2"/>
	<rect x="467.2" y="263.9" class="st1" width="14.2" height="14.2"/>
	<rect x="488.2" y="263.9" class="st1" width="14.2" height="14.2"/>
	<rect x="509.2" y="263.9" class="st1" width="14.2" height="14.2"/>
	<rect x="530.3" y="263.9" class="st1" width="14.2" height="14.2"/>
	<rect x="551.3" y="263.9" class="st1" width="14.2" height="14.2"/>
	<rect x="572.3" y="263.9" class="st1" width="14.2" height="14.2"/>
	<rect x="593.4" y="263.9" class="st1" width="14.2" height="14.2"/>
	<rect x="614.4" y="263.9" class="st1" width="14.2" height="14.2"/>
	<rect x="635.4" y="263.9" class="st1" width="14.2" height="14.2"/>
	<rect x="656.5" y="263.9" class="st1" width="14.2" height="14.2"/>
	<rect x="677.5" y="263.9" class="st1" width="14.2" height="14.2"/>
</g>
</svg>
