<?xml version="1.0" encoding="utf-8"?>
<!-- Generator: Adobe Illustrator 26.0.0, SVG Export Plug-In . SVG Version: 6.00 Build 0)  -->
<svg version="1.1"
	 id="图层_1" xmlns:cc="http://creativecommons.org/ns#" xmlns:dc="http://purl.org/dc/elements/1.1/" xmlns:inkscape="http://www.inkscape.org/namespaces/inkscape" xmlns:rdf="http://www.w3.org/1999/02/22-rdf-syntax-ns#" xmlns:svg="http://www.w3.org/2000/svg"
	 xmlns="http://www.w3.org/2000/svg" xmlns:xlink="http://www.w3.org/1999/xlink" x="0px" y="0px" viewBox="0 0 1526.7 590.5"
	 style="enable-background:new 0 0 1526.7 590.5;" xml:space="preserve">
<style type="text/css">
	.st0{fill:none;stroke:#000000;stroke-width:0.5669;stroke-linecap:round;stroke-linejoin:round;stroke-miterlimit:11.3386;}
	.st1{fill:#FF0000;}
	.st2{font-family:'ArialMT';}
	.st3{font-size:22.6772px;}
	.st4{font-size:11.3386px;}
	.st5{fill:none;stroke:#0000FF;stroke-width:0.5669;stroke-linecap:round;stroke-linejoin:round;stroke-miterlimit:11.3386;}
	.st6{fill:#FFFFFF;stroke:#000000;stroke-miterlimit:10;}
	.st7{display:none;fill:none;stroke:#000000;stroke-miterlimit:10;}
	.st8{fill:none;stroke:#000000;stroke-miterlimit:10;}
</style>
<g id="p-0">
	<path class="st0" d="M53.3,562.1h283.5v-28.3H53.3V562.1z"/>
	<text transform="matrix(1 0 0 1 68.3496 556.0598)" class="st1 st2 st3">100.00mm, burn:0.10mm</text>
</g>
<g id="p-1">
	<text transform="matrix(1 0 0 1 393.498 428.1252)" class="st1 st2 st4">Wall 1</text>
	<path class="st0" d="M61.8,520.4h32.3c0.3,0,0-0.3,0,0v8.2c0,0.2,0.1,0.3,0.3,0.3h17c0.2,0,0.3-0.1,0.3-0.3v-8.2c0-0.3-0.3,0,0,0
		h16.4c0.3,0,0-0.3,0,0v8.2c0,0.2,0.1,0.3,0.3,0.3h17c0.2,0,0.3-0.1,0.3-0.3v-8.2c0-0.3-0.3,0,0,0h16.4c0.3,0,0-0.3,0,0v8.2
		c0,0.2,0.1,0.3,0.3,0.3h17c0.2,0,0.3-0.1,0.3-0.3v-8.2c0-0.3-0.3,0,0,0h16.4c0.3,0,0-0.3,0,0v8.2c0,0.2,0.1,0.3,0.3,0.3h17
		c0.2,0,0.3-0.1,0.3-0.3v-8.2c0-0.3-0.3,0,0,0h16.4c0.3,0,0-0.3,0,0v8.2c0,0.2,0.1,0.3,0.3,0.3h17c0.2,0,0.3-0.1,0.3-0.3v-8.2
		c0-0.3-0.3,0,0,0h16.4c0.3,0,0-0.3,0,0v8.2c0,0.2,0.1,0.3,0.3,0.3h17c0.2,0,0.3-0.1,0.3-0.3v-8.2c0-0.3-0.3,0,0,0h16.4
		c0.3,0,0-0.3,0,0v8.2c0,0.2,0.1,0.3,0.3,0.3h17c0.2,0,0.3-0.1,0.3-0.3v-8.2c0-0.3-0.3,0,0,0h16.4c0.3,0,0-0.3,0,0v8.2
		c0,0.2,0.1,0.3,0.3,0.3h17c0.2,0,0.3-0.1,0.3-0.3v-8.2c0-0.3-0.3,0,0,0h16.4c0.3,0,0-0.3,0,0v8.2c0,0.2,0.1,0.3,0.3,0.3h17
		c0.2,0,0.3-0.1,0.3-0.3v-8.2c0-0.3-0.3,0,0,0h16.4c0.3,0,0-0.3,0,0v8.2c0,0.2,0.1,0.3,0.3,0.3h17c0.2,0,0.3-0.1,0.3-0.3v-8.2
		c0-0.3-0.3,0,0,0h16.4c0.3,0,0-0.3,0,0v8.2c0,0.2,0.1,0.3,0.3,0.3h17c0.2,0,0.3-0.1,0.3-0.3v-8.2c0-0.3-0.3,0,0,0h16.4
		c0.3,0,0-0.3,0,0v8.2c0,0.2,0.1,0.3,0.3,0.3h17c0.2,0,0.3-0.1,0.3-0.3v-8.2c0-0.3-0.3,0,0,0h16.4c0.3,0,0-0.3,0,0v8.2
		c0,0.2,0.1,0.3,0.3,0.3h17c0.2,0,0.3-0.1,0.3-0.3v-8.2c0-0.3-0.3,0,0,0h16.4c0.3,0,0-0.3,0,0v8.2c0,0.2,0.1,0.3,0.3,0.3h17
		c0.2,0,0.3-0.1,0.3-0.3v-8.2c0-0.3-0.3,0,0,0h16.4c0.3,0,0-0.3,0,0v8.2c0,0.2,0.1,0.3,0.3,0.3h17c0.2,0,0.3-0.1,0.3-0.3v-8.2
		c0-0.3-0.3,0,0,0h16.4c0.3,0,0-0.3,0,0v8.2c0,0.2,0.1,0.3,0.3,0.3h17c0.2,0,0.3-0.1,0.3-0.3v-8.2c0-0.3-0.3,0,0,0h16.4
		c0.3,0,0-0.3,0,0v8.2c0,0.2,0.1,0.3,0.3,0.3h17c0.2,0,0.3-0.1,0.3-0.3v-8.2c0-0.3-0.3,0,0,0h16.4c0.3,0,0-0.3,0,0v8.2
		c0,0.2,0.1,0.3,0.3,0.3h17c0.2,0,0.3-0.1,0.3-0.3v-8.2c0-0.3-0.3,0,0,0h16.4c0.3,0,0-0.3,0,0v8.2c0,0.2,0.1,0.3,0.3,0.3h17
		c0.2,0,0.3-0.1,0.3-0.3v-8.2c0-0.3-0.3,0,0,0H756h8.5c0.2,0,0.3-0.1,0.3-0.3v-19.8c0-0.2-0.1-0.3-0.3-0.3h-8.2c-0.3,0,0,0.3,0,0
		v-16.4c0-0.3-0.3,0,0,0h8.2c0.2,0,0.3-0.1,0.3-0.3v-17c0-0.2-0.1-0.3-0.3-0.3h-8.2c-0.3,0,0,0.3,0,0v-16.4c0-0.3-0.3,0,0,0h8.2
		c0.2,0,0.3-0.1,0.3-0.3v-17c0-0.2-0.1-0.3-0.3-0.3h-8.2c-0.3,0,0,0.3,0,0v-16.4c0-0.3-0.3,0,0,0h8.2c0.2,0,0.3-0.1,0.3-0.3v-17
		c0-0.2-0.1-0.3-0.3-0.3h-8.2c-0.3,0,0,0.3,0,0v-16.4c0-0.3-0.3,0,0,0h8.2c0.2,0,0.3-0.1,0.3-0.3v-17c0-0.2-0.1-0.3-0.3-0.3h-8.2
		c-0.3,0,0,0.3,0,0v-16.4c0-0.3-0.3,0,0,0h8.2c0.2,0,0.3-0.1,0.3-0.3v-19.8V319c0-0.2-0.1-0.3-0.3-0.3H756h-32.6
		c-0.2,0-0.3,0.1-0.3,0.3v8.2c0,0.3,0.3,0,0,0H707c-0.3,0,0,0.3,0,0V319c0-0.2-0.1-0.3-0.3-0.3h-17c-0.2,0-0.3,0.1-0.3,0.3v8.2
		c0,0.3,0.3,0,0,0H673c-0.3,0,0,0.3,0,0V319c0-0.2-0.1-0.3-0.3-0.3h-17c-0.2,0-0.3,0.1-0.3,0.3v8.2c0,0.3,0.3,0,0,0H639
		c-0.3,0,0,0.3,0,0V319c0-0.2-0.1-0.3-0.3-0.3h-17c-0.2,0-0.3,0.1-0.3,0.3v8.2c0,0.3,0.3,0,0,0H605c-0.3,0,0,0.3,0,0V319
		c0-0.2-0.1-0.3-0.3-0.3h-17c-0.2,0-0.3,0.1-0.3,0.3v8.2c0,0.3,0.3,0,0,0H571c-0.3,0,0,0.3,0,0V319c0-0.2-0.1-0.3-0.3-0.3h-17
		c-0.2,0-0.3,0.1-0.3,0.3v8.2c0,0.3,0.3,0,0,0H537c-0.3,0,0,0.3,0,0V319c0-0.2-0.1-0.3-0.3-0.3h-17c-0.2,0-0.3,0.1-0.3,0.3v8.2
		c0,0.3,0.3,0,0,0H503c-0.3,0,0,0.3,0,0V319c0-0.2-0.1-0.3-0.3-0.3h-17c-0.2,0-0.3,0.1-0.3,0.3v8.2c0,0.3,0.3,0,0,0H469
		c-0.3,0,0,0.3,0,0V319c0-0.2-0.1-0.3-0.3-0.3h-17c-0.2,0-0.3,0.1-0.3,0.3v8.2c0,0.3,0.3,0,0,0H435c-0.3,0,0,0.3,0,0V319
		c0-0.2-0.1-0.3-0.3-0.3h-17c-0.2,0-0.3,0.1-0.3,0.3v8.2c0,0.3,0.3,0,0,0H401c-0.3,0,0,0.3,0,0V319c0-0.2-0.1-0.3-0.3-0.3h-17
		c-0.2,0-0.3,0.1-0.3,0.3v8.2c0,0.3,0.3,0,0,0H367c-0.3,0,0,0.3,0,0V319c0-0.2-0.1-0.3-0.3-0.3h-17c-0.2,0-0.3,0.1-0.3,0.3v8.2
		c0,0.3,0.3,0,0,0H333c-0.3,0,0,0.3,0,0V319c0-0.2-0.1-0.3-0.3-0.3h-17c-0.2,0-0.3,0.1-0.3,0.3v8.2c0,0.3,0.3,0,0,0H299
		c-0.3,0,0,0.3,0,0V319c0-0.2-0.1-0.3-0.3-0.3h-17c-0.2,0-0.3,0.1-0.3,0.3v8.2c0,0.3,0.3,0,0,0H265c-0.3,0,0,0.3,0,0V319
		c0-0.2-0.1-0.3-0.3-0.3h-17c-0.2,0-0.3,0.1-0.3,0.3v8.2c0,0.3,0.3,0,0,0H231c-0.3,0,0,0.3,0,0V319c0-0.2-0.1-0.3-0.3-0.3h-17
		c-0.2,0-0.3,0.1-0.3,0.3v8.2c0,0.3,0.3,0,0,0H197c-0.3,0,0,0.3,0,0V319c0-0.2-0.1-0.3-0.3-0.3h-17c-0.2,0-0.3,0.1-0.3,0.3v8.2
		c0,0.3,0.3,0,0,0H163c-0.3,0,0,0.3,0,0V319c0-0.2-0.1-0.3-0.3-0.3h-17c-0.2,0-0.3,0.1-0.3,0.3v8.2c0,0.3,0.3,0,0,0H129
		c-0.3,0,0,0.3,0,0V319c0-0.2-0.1-0.3-0.3-0.3h-17c-0.2,0-0.3,0.1-0.3,0.3v8.2c0,0.3,0.3,0,0,0H94.7c-0.3,0,0,0.3,0,0V319
		c0-0.2-0.1-0.3-0.3-0.3H61.8h-8.5c-0.2,0-0.3,0.1-0.3,0.3v8.5v19.8c0,0.2,0.1,0.3,0.3,0.3h8.2c0.3,0,0-0.3,0,0V364c0,0.3,0.3,0,0,0
		h-8.2c-0.2,0-0.3,0.1-0.3,0.3v17c0,0.2,0.1,0.3,0.3,0.3h8.2c0.3,0,0-0.3,0,0V398c0,0.3,0.3,0,0,0h-8.2c-0.2,0-0.3,0.1-0.3,0.3v17
		c0,0.2,0.1,0.3,0.3,0.3h8.2c0.3,0,0-0.3,0,0V432c0,0.3,0.3,0,0,0h-8.2c-0.2,0-0.3,0.1-0.3,0.3v17c0,0.2,0.1,0.3,0.3,0.3h8.2
		c0.3,0,0-0.3,0,0V466c0,0.3,0.3,0,0,0h-8.2c-0.2,0-0.3,0.1-0.3,0.3v17c0,0.2,0.1,0.3,0.3,0.3h8.2c0.3,0,0-0.3,0,0V500
		c0,0.3,0.3,0,0,0h-8.2c-0.2,0-0.3,0.1-0.3,0.3v19.8c0,0.2,0.1,0.3,0.3,0.3L61.8,520.4"/>
</g>
<g id="p-2">
	<text transform="matrix(1 0 0 1 780.9941 428.1252)" class="st1 st2 st4">Wall 2</text>
	<path class="st0" d="M778.1,520.4h9.6c0.3,0,0-0.3,0,0v8.2c0,0.2,0.1,0.3,0.3,0.3h17c0.2,0,0.3-0.1,0.3-0.3v-8.2c0-0.3-0.3,0,0,0
		h9.6c0.2,0,0.3-0.1,0.3-0.3v-19.6c0-0.3-0.3,0,0,0h8.2c0.2,0,0.3-0.1,0.3-0.3v-17c0-0.2-0.1-0.3-0.3-0.3h-8.2c-0.3,0,0,0.3,0,0
		v-16.4c0-0.3-0.3,0,0,0h8.2c0.2,0,0.3-0.1,0.3-0.3v-17c0-0.2-0.1-0.3-0.3-0.3h-8.2c-0.3,0,0,0.3,0,0v-16.4c0-0.3-0.3,0,0,0h8.2
		c0.2,0,0.3-0.1,0.3-0.3v-17c0-0.2-0.1-0.3-0.3-0.3h-8.2c-0.3,0,0,0.3,0,0v-16.4c0-0.3-0.3,0,0,0h8.2c0.2,0,0.3-0.1,0.3-0.3v-17
		c0-0.2-0.1-0.3-0.3-0.3h-8.2c-0.3,0,0,0.3,0,0v-16.4c0-0.3-0.3,0,0,0h8.2c0.2,0,0.3-0.1,0.3-0.3v-17c0-0.2-0.1-0.3-0.3-0.3h-8.2
		c-0.3,0,0,0.3,0,0v-19.6v-8.5c0-0.2-0.1-0.3-0.3-0.3H805c-0.2,0-0.3,0.1-0.3,0.3v8.2c0,0.3,0.3,0,0,0h-16.4c-0.3,0,0,0.3,0,0v-8.2
		c0-0.2-0.1-0.3-0.3-0.3h-9.9c-0.2,0-0.3,0.1-0.3,0.3v8.5V347c0,0.3,0.3,0,0,0h-8.2c-0.2,0-0.3,0.1-0.3,0.3v17
		c0,0.2,0.1,0.3,0.3,0.3h8.2c0.3,0,0-0.3,0,0V381c0,0.3,0.3,0,0,0h-8.2c-0.2,0-0.3,0.1-0.3,0.3v17c0,0.2,0.1,0.3,0.3,0.3h8.2
		c0.3,0,0-0.3,0,0V415c0,0.3,0.3,0,0,0h-8.2c-0.2,0-0.3,0.1-0.3,0.3v17c0,0.2,0.1,0.3,0.3,0.3h8.2c0.3,0,0-0.3,0,0V449
		c0,0.3,0.3,0,0,0h-8.2c-0.2,0-0.3,0.1-0.3,0.3v17c0,0.2,0.1,0.3,0.3,0.3h8.2c0.3,0,0-0.3,0,0V483c0,0.3,0.3,0,0,0h-8.2
		c-0.2,0-0.3,0.1-0.3,0.3v17c0,0.2,0.1,0.3,0.3,0.3h8.2c0.3,0,0-0.3,0,0v19.6C777.8,520.3,778,520.4,778.1,520.4"/>
</g>
<g id="p-3">
	<text transform="matrix(1 0 0 1 780.9941 213.5422)" class="st1 st2 st4">Wall 4</text>
	<path class="st0" d="M778.1,305.9h9.6c0.3,0,0-0.3,0,0v8.2c0,0.2,0.1,0.3,0.3,0.3h17c0.2,0,0.3-0.1,0.3-0.3v-8.2c0-0.3-0.3,0,0,0
		h9.6c0.2,0,0.3-0.1,0.3-0.3V286c0-0.3-0.3,0,0,0h8.2c0.2,0,0.3-0.1,0.3-0.3v-17c0-0.2-0.1-0.3-0.3-0.3h-8.2c-0.3,0,0,0.3,0,0V252
		c0-0.3-0.3,0,0,0h8.2c0.2,0,0.3-0.1,0.3-0.3v-17c0-0.2-0.1-0.3-0.3-0.3h-8.2c-0.3,0,0,0.3,0,0V218c0-0.3-0.3,0,0,0h8.2
		c0.2,0,0.3-0.1,0.3-0.3v-17c0-0.2-0.1-0.3-0.3-0.3h-8.2c-0.3,0,0,0.3,0,0V184c0-0.3-0.3,0,0,0h8.2c0.2,0,0.3-0.1,0.3-0.3v-17
		c0-0.2-0.1-0.3-0.3-0.3h-8.2c-0.3,0,0,0.3,0,0V150c0-0.3-0.3,0,0,0h8.2c0.2,0,0.3-0.1,0.3-0.3v-17c0-0.2-0.1-0.3-0.3-0.3h-8.2
		c-0.3,0,0,0.3,0,0v-19.6v-8.5c0-0.2-0.1-0.3-0.3-0.3H805c-0.2,0-0.3,0.1-0.3,0.3v8.2c0,0.3,0.3,0,0,0h-16.4c-0.3,0,0,0.3,0,0v-8.2
		c0-0.2-0.1-0.3-0.3-0.3h-9.9c-0.2,0-0.3,0.1-0.3,0.3v8.5v19.6c0,0.3,0.3,0,0,0h-8.2c-0.2,0-0.3,0.1-0.3,0.3v17
		c0,0.2,0.1,0.3,0.3,0.3h8.2c0.3,0,0-0.3,0,0v16.4c0,0.3,0.3,0,0,0h-8.2c-0.2,0-0.3,0.1-0.3,0.3v17c0,0.2,0.1,0.3,0.3,0.3h8.2
		c0.3,0,0-0.3,0,0v16.4c0,0.3,0.3,0,0,0h-8.2c-0.2,0-0.3,0.1-0.3,0.3v17c0,0.2,0.1,0.3,0.3,0.3h8.2c0.3,0,0-0.3,0,0v16.4
		c0,0.3,0.3,0,0,0h-8.2c-0.2,0-0.3,0.1-0.3,0.3v17c0,0.2,0.1,0.3,0.3,0.3h8.2c0.3,0,0-0.3,0,0v16.4c0,0.3,0.3,0,0,0h-8.2
		c-0.2,0-0.3,0.1-0.3,0.3v17c0,0.2,0.1,0.3,0.3,0.3h8.2c0.3,0,0-0.3,0,0v19.6C777.8,305.7,778,305.9,778.1,305.9"/>
</g>
<g id="p-4">
	<text transform="matrix(1 0 0 1 393.498 213.5422)" class="st1 st2 st4">Wall 3</text>
	<path class="st0" d="M61.8,305.9h32.3c0.3,0,0-0.3,0,0v8.2c0,0.2,0.1,0.3,0.3,0.3h17c0.2,0,0.3-0.1,0.3-0.3v-8.2c0-0.3-0.3,0,0,0
		h16.4c0.3,0,0-0.3,0,0v8.2c0,0.2,0.1,0.3,0.3,0.3h17c0.2,0,0.3-0.1,0.3-0.3v-8.2c0-0.3-0.3,0,0,0h16.4c0.3,0,0-0.3,0,0v8.2
		c0,0.2,0.1,0.3,0.3,0.3h17c0.2,0,0.3-0.1,0.3-0.3v-8.2c0-0.3-0.3,0,0,0h16.4c0.3,0,0-0.3,0,0v8.2c0,0.2,0.1,0.3,0.3,0.3h17
		c0.2,0,0.3-0.1,0.3-0.3v-8.2c0-0.3-0.3,0,0,0h16.4c0.3,0,0-0.3,0,0v8.2c0,0.2,0.1,0.3,0.3,0.3h17c0.2,0,0.3-0.1,0.3-0.3v-8.2
		c0-0.3-0.3,0,0,0h16.4c0.3,0,0-0.3,0,0v8.2c0,0.2,0.1,0.3,0.3,0.3h17c0.2,0,0.3-0.1,0.3-0.3v-8.2c0-0.3-0.3,0,0,0h16.4
		c0.3,0,0-0.3,0,0v8.2c0,0.2,0.1,0.3,0.3,0.3h17c0.2,0,0.3-0.1,0.3-0.3v-8.2c0-0.3-0.3,0,0,0h16.4c0.3,0,0-0.3,0,0v8.2
		c0,0.2,0.1,0.3,0.3,0.3h17c0.2,0,0.3-0.1,0.3-0.3v-8.2c0-0.3-0.3,0,0,0h16.4c0.3,0,0-0.3,0,0v8.2c0,0.2,0.1,0.3,0.3,0.3h17
		c0.2,0,0.3-0.1,0.3-0.3v-8.2c0-0.3-0.3,0,0,0h16.4c0.3,0,0-0.3,0,0v8.2c0,0.2,0.1,0.3,0.3,0.3h17c0.2,0,0.3-0.1,0.3-0.3v-8.2
		c0-0.3-0.3,0,0,0h16.4c0.3,0,0-0.3,0,0v8.2c0,0.2,0.1,0.3,0.3,0.3h17c0.2,0,0.3-0.1,0.3-0.3v-8.2c0-0.3-0.3,0,0,0h16.4
		c0.3,0,0-0.3,0,0v8.2c0,0.2,0.1,0.3,0.3,0.3h17c0.2,0,0.3-0.1,0.3-0.3v-8.2c0-0.3-0.3,0,0,0h16.4c0.3,0,0-0.3,0,0v8.2
		c0,0.2,0.1,0.3,0.3,0.3h17c0.2,0,0.3-0.1,0.3-0.3v-8.2c0-0.3-0.3,0,0,0h16.4c0.3,0,0-0.3,0,0v8.2c0,0.2,0.1,0.3,0.3,0.3h17
		c0.2,0,0.3-0.1,0.3-0.3v-8.2c0-0.3-0.3,0,0,0h16.4c0.3,0,0-0.3,0,0v8.2c0,0.2,0.1,0.3,0.3,0.3h17c0.2,0,0.3-0.1,0.3-0.3v-8.2
		c0-0.3-0.3,0,0,0h16.4c0.3,0,0-0.3,0,0v8.2c0,0.2,0.1,0.3,0.3,0.3h17c0.2,0,0.3-0.1,0.3-0.3v-8.2c0-0.3-0.3,0,0,0h16.4
		c0.3,0,0-0.3,0,0v8.2c0,0.2,0.1,0.3,0.3,0.3h17c0.2,0,0.3-0.1,0.3-0.3v-8.2c0-0.3-0.3,0,0,0h16.4c0.3,0,0-0.3,0,0v8.2
		c0,0.2,0.1,0.3,0.3,0.3h17c0.2,0,0.3-0.1,0.3-0.3v-8.2c0-0.3-0.3,0,0,0h16.4c0.3,0,0-0.3,0,0v8.2c0,0.2,0.1,0.3,0.3,0.3h17
		c0.2,0,0.3-0.1,0.3-0.3v-8.2c0-0.3-0.3,0,0,0H756h8.5c0.2,0,0.3-0.1,0.3-0.3v-19.8c0-0.2-0.1-0.3-0.3-0.3h-8.2c-0.3,0,0,0.3,0,0
		V269c0-0.3-0.3,0,0,0h8.2c0.2,0,0.3-0.1,0.3-0.3v-17c0-0.2-0.1-0.3-0.3-0.3h-8.2c-0.3,0,0,0.3,0,0V235c0-0.3-0.3,0,0,0h8.2
		c0.2,0,0.3-0.1,0.3-0.3v-17c0-0.2-0.1-0.3-0.3-0.3h-8.2c-0.3,0,0,0.3,0,0V201c0-0.3-0.3,0,0,0h8.2c0.2,0,0.3-0.1,0.3-0.3v-17
		c0-0.2-0.1-0.3-0.3-0.3h-8.2c-0.3,0,0,0.3,0,0V167c0-0.3-0.3,0,0,0h8.2c0.2,0,0.3-0.1,0.3-0.3v-17c0-0.2-0.1-0.3-0.3-0.3h-8.2
		c-0.3,0,0,0.3,0,0V133c0-0.3-0.3,0,0,0h8.2c0.2,0,0.3-0.1,0.3-0.3v-19.8v-8.5c0-0.2-0.1-0.3-0.3-0.3H756h-32.6
		c-0.2,0-0.3,0.1-0.3,0.3v8.2c0,0.3,0.3,0,0,0H707c-0.3,0,0,0.3,0,0v-8.2c0-0.2-0.1-0.3-0.3-0.3h-17c-0.2,0-0.3,0.1-0.3,0.3v8.2
		c0,0.3,0.3,0,0,0H673c-0.3,0,0,0.3,0,0v-8.2c0-0.2-0.1-0.3-0.3-0.3h-17c-0.2,0-0.3,0.1-0.3,0.3v8.2c0,0.3,0.3,0,0,0H639
		c-0.3,0,0,0.3,0,0v-8.2c0-0.2-0.1-0.3-0.3-0.3h-17c-0.2,0-0.3,0.1-0.3,0.3v8.2c0,0.3,0.3,0,0,0H605c-0.3,0,0,0.3,0,0v-8.2
		c0-0.2-0.1-0.3-0.3-0.3h-17c-0.2,0-0.3,0.1-0.3,0.3v8.2c0,0.3,0.3,0,0,0H571c-0.3,0,0,0.3,0,0v-8.2c0-0.2-0.1-0.3-0.3-0.3h-17
		c-0.2,0-0.3,0.1-0.3,0.3v8.2c0,0.3,0.3,0,0,0H537c-0.3,0,0,0.3,0,0v-8.2c0-0.2-0.1-0.3-0.3-0.3h-17c-0.2,0-0.3,0.1-0.3,0.3v8.2
		c0,0.3,0.3,0,0,0H503c-0.3,0,0,0.3,0,0v-8.2c0-0.2-0.1-0.3-0.3-0.3h-17c-0.2,0-0.3,0.1-0.3,0.3v8.2c0,0.3,0.3,0,0,0H469
		c-0.3,0,0,0.3,0,0v-8.2c0-0.2-0.1-0.3-0.3-0.3h-17c-0.2,0-0.3,0.1-0.3,0.3v8.2c0,0.3,0.3,0,0,0H435c-0.3,0,0,0.3,0,0v-8.2
		c0-0.2-0.1-0.3-0.3-0.3h-17c-0.2,0-0.3,0.1-0.3,0.3v8.2c0,0.3,0.3,0,0,0H401c-0.3,0,0,0.3,0,0v-8.2c0-0.2-0.1-0.3-0.3-0.3h-17
		c-0.2,0-0.3,0.1-0.3,0.3v8.2c0,0.3,0.3,0,0,0H367c-0.3,0,0,0.3,0,0v-8.2c0-0.2-0.1-0.3-0.3-0.3h-17c-0.2,0-0.3,0.1-0.3,0.3v8.2
		c0,0.3,0.3,0,0,0H333c-0.3,0,0,0.3,0,0v-8.2c0-0.2-0.1-0.3-0.3-0.3h-17c-0.2,0-0.3,0.1-0.3,0.3v8.2c0,0.3,0.3,0,0,0H299
		c-0.3,0,0,0.3,0,0v-8.2c0-0.2-0.1-0.3-0.3-0.3h-17c-0.2,0-0.3,0.1-0.3,0.3v8.2c0,0.3,0.3,0,0,0H265c-0.3,0,0,0.3,0,0v-8.2
		c0-0.2-0.1-0.3-0.3-0.3h-17c-0.2,0-0.3,0.1-0.3,0.3v8.2c0,0.3,0.3,0,0,0H231c-0.3,0,0,0.3,0,0v-8.2c0-0.2-0.1-0.3-0.3-0.3h-17
		c-0.2,0-0.3,0.1-0.3,0.3v8.2c0,0.3,0.3,0,0,0H197c-0.3,0,0,0.3,0,0v-8.2c0-0.2-0.1-0.3-0.3-0.3h-17c-0.2,0-0.3,0.1-0.3,0.3v8.2
		c0,0.3,0.3,0,0,0H163c-0.3,0,0,0.3,0,0v-8.2c0-0.2-0.1-0.3-0.3-0.3h-17c-0.2,0-0.3,0.1-0.3,0.3v8.2c0,0.3,0.3,0,0,0H129
		c-0.3,0,0,0.3,0,0v-8.2c0-0.2-0.1-0.3-0.3-0.3h-17c-0.2,0-0.3,0.1-0.3,0.3v8.2c0,0.3,0.3,0,0,0H94.7c-0.3,0,0,0.3,0,0v-8.2
		c0-0.2-0.1-0.3-0.3-0.3H61.8h-8.5c-0.2,0-0.3,0.1-0.3,0.3v8.5v19.8c0,0.2,0.1,0.3,0.3,0.3h8.2c0.3,0,0-0.3,0,0v16.4
		c0,0.3,0.3,0,0,0h-8.2c-0.2,0-0.3,0.1-0.3,0.3v17c0,0.2,0.1,0.3,0.3,0.3h8.2c0.3,0,0-0.3,0,0v16.4c0,0.3,0.3,0,0,0h-8.2
		c-0.2,0-0.3,0.1-0.3,0.3v17c0,0.2,0.1,0.3,0.3,0.3h8.2c0.3,0,0-0.3,0,0v16.4c0,0.3,0.3,0,0,0h-8.2c-0.2,0-0.3,0.1-0.3,0.3v17
		c0,0.2,0.1,0.3,0.3,0.3h8.2c0.3,0,0-0.3,0,0v16.4c0,0.3,0.3,0,0,0h-8.2c-0.2,0-0.3,0.1-0.3,0.3v17c0,0.2,0.1,0.3,0.3,0.3h8.2
		c0.3,0,0-0.3,0,0v16.4c0,0.3,0.3,0,0,0h-8.2c-0.2,0-0.3,0.1-0.3,0.3v19.8c0,0.2,0.1,0.3,0.3,0.3h8.5"/>
</g>
<g id="p-5">
	<text transform="matrix(1 0 0 1 399.8975 76.9123)" class="st1 st2 st4">Top</text>
	<path class="st0" d="M61.8,91.3h32.3c0.3,0,0-0.3,0,0v8.2c0,0.2,0.1,0.3,0.3,0.3h17c0.2,0,0.3-0.1,0.3-0.3v-8.2c0-0.3-0.3,0,0,0
		h16.4c0.3,0,0-0.3,0,0v8.2c0,0.2,0.1,0.3,0.3,0.3h17c0.2,0,0.3-0.1,0.3-0.3v-8.2c0-0.3-0.3,0,0,0h16.4c0.3,0,0-0.3,0,0v8.2
		c0,0.2,0.1,0.3,0.3,0.3h17c0.2,0,0.3-0.1,0.3-0.3v-8.2c0-0.3-0.3,0,0,0h16.4c0.3,0,0-0.3,0,0v8.2c0,0.2,0.1,0.3,0.3,0.3h17
		c0.2,0,0.3-0.1,0.3-0.3v-8.2c0-0.3-0.3,0,0,0h16.4c0.3,0,0-0.3,0,0v8.2c0,0.2,0.1,0.3,0.3,0.3h17c0.2,0,0.3-0.1,0.3-0.3v-8.2
		c0-0.3-0.3,0,0,0h16.4c0.3,0,0-0.3,0,0v8.2c0,0.2,0.1,0.3,0.3,0.3h17c0.2,0,0.3-0.1,0.3-0.3v-8.2c0-0.3-0.3,0,0,0h16.4
		c0.3,0,0-0.3,0,0v8.2c0,0.2,0.1,0.3,0.3,0.3h17c0.2,0,0.3-0.1,0.3-0.3v-8.2c0-0.3-0.3,0,0,0h16.4c0.3,0,0-0.3,0,0v8.2
		c0,0.2,0.1,0.3,0.3,0.3h17c0.2,0,0.3-0.1,0.3-0.3v-8.2c0-0.3-0.3,0,0,0h16.4c0.3,0,0-0.3,0,0v8.2c0,0.2,0.1,0.3,0.3,0.3h17
		c0.2,0,0.3-0.1,0.3-0.3v-8.2c0-0.3-0.3,0,0,0h16.4c0.3,0,0-0.3,0,0v8.2c0,0.2,0.1,0.3,0.3,0.3h17c0.2,0,0.3-0.1,0.3-0.3v-8.2
		c0-0.3-0.3,0,0,0h16.4c0.3,0,0-0.3,0,0v8.2c0,0.2,0.1,0.3,0.3,0.3h17c0.2,0,0.3-0.1,0.3-0.3v-8.2c0-0.3-0.3,0,0,0h16.4
		c0.3,0,0-0.3,0,0v8.2c0,0.2,0.1,0.3,0.3,0.3h17c0.2,0,0.3-0.1,0.3-0.3v-8.2c0-0.3-0.3,0,0,0h16.4c0.3,0,0-0.3,0,0v8.2
		c0,0.2,0.1,0.3,0.3,0.3h17c0.2,0,0.3-0.1,0.3-0.3v-8.2c0-0.3-0.3,0,0,0h16.4c0.3,0,0-0.3,0,0v8.2c0,0.2,0.1,0.3,0.3,0.3h17
		c0.2,0,0.3-0.1,0.3-0.3v-8.2c0-0.3-0.3,0,0,0h16.4c0.3,0,0-0.3,0,0v8.2c0,0.2,0.1,0.3,0.3,0.3h17c0.2,0,0.3-0.1,0.3-0.3v-8.2
		c0-0.3-0.3,0,0,0h16.4c0.3,0,0-0.3,0,0v8.2c0,0.2,0.1,0.3,0.3,0.3h17c0.2,0,0.3-0.1,0.3-0.3v-8.2c0-0.3-0.3,0,0,0h16.4
		c0.3,0,0-0.3,0,0v8.2c0,0.2,0.1,0.3,0.3,0.3h17c0.2,0,0.3-0.1,0.3-0.3v-8.2c0-0.3-0.3,0,0,0h16.4c0.3,0,0-0.3,0,0v8.2
		c0,0.2,0.1,0.3,0.3,0.3h17c0.2,0,0.3-0.1,0.3-0.3v-8.2c0-0.3-0.3,0,0,0h16.4c0.3,0,0-0.3,0,0v8.2c0,0.2,0.1,0.3,0.3,0.3h17
		c0.2,0,0.3-0.1,0.3-0.3v-8.2c0-0.3-0.3,0,0,0H756c0.2,0,0.3-0.1,0.3-0.3v-9.6c0-0.3-0.3,0,0,0h8.2c0.2,0,0.3-0.1,0.3-0.3v-17
		c0-0.2-0.1-0.3-0.3-0.3h-8.2c-0.3,0,0,0.3,0,0v-9.6c0-0.2-0.1-0.3-0.3-0.3h-32c-0.3,0,0,0.3,0,0v-8.2c0-0.2-0.1-0.3-0.3-0.3h-17
		c-0.2,0-0.3,0.1-0.3,0.3v8.2c0,0.3,0.3,0,0,0H690c-0.3,0,0,0.3,0,0v-8.2c0-0.2-0.1-0.3-0.3-0.3h-17c-0.2,0-0.3,0.1-0.3,0.3v8.2
		c0,0.3,0.3,0,0,0H656c-0.3,0,0,0.3,0,0v-8.2c0-0.2-0.1-0.3-0.3-0.3h-17c-0.2,0-0.3,0.1-0.3,0.3v8.2c0,0.3,0.3,0,0,0H622
		c-0.3,0,0,0.3,0,0v-8.2c0-0.2-0.1-0.3-0.3-0.3h-17c-0.2,0-0.3,0.1-0.3,0.3v8.2c0,0.3,0.3,0,0,0H588c-0.3,0,0,0.3,0,0v-8.2
		c0-0.2-0.1-0.3-0.3-0.3h-17c-0.2,0-0.3,0.1-0.3,0.3v8.2c0,0.3,0.3,0,0,0H554c-0.3,0,0,0.3,0,0v-8.2c0-0.2-0.1-0.3-0.3-0.3h-17
		c-0.2,0-0.3,0.1-0.3,0.3v8.2c0,0.3,0.3,0,0,0H520c-0.3,0,0,0.3,0,0v-8.2c0-0.2-0.1-0.3-0.3-0.3h-17c-0.2,0-0.3,0.1-0.3,0.3v8.2
		c0,0.3,0.3,0,0,0H486c-0.3,0,0,0.3,0,0v-8.2c0-0.2-0.1-0.3-0.3-0.3h-17c-0.2,0-0.3,0.1-0.3,0.3v8.2c0,0.3,0.3,0,0,0H452
		c-0.3,0,0,0.3,0,0v-8.2c0-0.2-0.1-0.3-0.3-0.3h-17c-0.2,0-0.3,0.1-0.3,0.3v8.2c0,0.3,0.3,0,0,0H418c-0.3,0,0,0.3,0,0v-8.2
		c0-0.2-0.1-0.3-0.3-0.3h-17c-0.2,0-0.3,0.1-0.3,0.3v8.2c0,0.3,0.3,0,0,0H384c-0.3,0,0,0.3,0,0v-8.2c0-0.2-0.1-0.3-0.3-0.3h-17
		c-0.2,0-0.3,0.1-0.3,0.3v8.2c0,0.3,0.3,0,0,0H350c-0.3,0,0,0.3,0,0v-8.2c0-0.2-0.1-0.3-0.3-0.3h-17c-0.2,0-0.3,0.1-0.3,0.3v8.2
		c0,0.3,0.3,0,0,0H316c-0.3,0,0,0.3,0,0v-8.2c0-0.2-0.1-0.3-0.3-0.3h-17c-0.2,0-0.3,0.1-0.3,0.3v8.2c0,0.3,0.3,0,0,0H282
		c-0.3,0,0,0.3,0,0v-8.2c0-0.2-0.1-0.3-0.3-0.3h-17c-0.2,0-0.3,0.1-0.3,0.3v8.2c0,0.3,0.3,0,0,0H248c-0.3,0,0,0.3,0,0v-8.2
		c0-0.2-0.1-0.3-0.3-0.3h-17c-0.2,0-0.3,0.1-0.3,0.3v8.2c0,0.3,0.3,0,0,0H214c-0.3,0,0,0.3,0,0v-8.2c0-0.2-0.1-0.3-0.3-0.3h-17
		c-0.2,0-0.3,0.1-0.3,0.3v8.2c0,0.3,0.3,0,0,0H180c-0.3,0,0,0.3,0,0v-8.2c0-0.2-0.1-0.3-0.3-0.3h-17c-0.2,0-0.3,0.1-0.3,0.3v8.2
		c0,0.3,0.3,0,0,0H146c-0.3,0,0,0.3,0,0v-8.2c0-0.2-0.1-0.3-0.3-0.3h-17c-0.2,0-0.3,0.1-0.3,0.3v8.2c0,0.3,0.3,0,0,0H112
		c-0.3,0,0,0.3,0,0v-8.2c0-0.2-0.1-0.3-0.3-0.3h-17c-0.2,0-0.3,0.1-0.3,0.3v8.2c0,0.3,0.3,0,0,0H61.8c-0.2,0-0.3,0.1-0.3,0.3v9.6
		c0,0.3,0.3,0,0,0h-8.2c-0.2,0-0.3,0.1-0.3,0.3v17c0,0.2,0.1,0.3,0.3,0.3h8.2c0.3,0,0-0.3,0,0V91C61.5,91.1,61.6,91.3,61.8,91.3"/>
</g>
<g id="p-6">
	<path class="st5" d="M827.7,90.7h-8.2c-0.3,0,0,0.3,0,0v-7.9c0-0.3-0.3,0,0,0h16.4c0.3,0,0-0.3,0,0v7.9c0,0.3,0.3,0,0,0H827.7z"/>
	<path class="st5" d="M861.7,90.7h-8.2c-0.3,0,0,0.3,0,0v-7.9c0-0.3-0.3,0,0,0H870c0.3,0,0-0.3,0,0v7.9c0,0.3,0.3,0,0,0H861.7z"/>
	<path class="st5" d="M895.7,90.7h-8.2c-0.3,0,0,0.3,0,0v-7.9c0-0.3-0.3,0,0,0H904c0.3,0,0-0.3,0,0v7.9c0,0.3,0.3,0,0,0H895.7z"/>
	<path class="st5" d="M929.8,90.7h-8.2c-0.3,0,0,0.3,0,0v-7.9c0-0.3-0.3,0,0,0H938c0.3,0,0-0.3,0,0v7.9c0,0.3,0.3,0,0,0H929.8z"/>
	<path class="st5" d="M963.8,90.7h-8.2c-0.3,0,0,0.3,0,0v-7.9c0-0.3-0.3,0,0,0H972c0.3,0,0-0.3,0,0v7.9c0,0.3,0.3,0,0,0H963.8z"/>
	<path class="st5" d="M997.8,90.7h-8.2c-0.3,0,0,0.3,0,0v-7.9c0-0.3-0.3,0,0,0h16.4c0.3,0,0-0.3,0,0v7.9c0,0.3,0.3,0,0,0H997.8z"/>
	<path class="st5" d="M1031.8,90.7h-8.2c-0.3,0,0,0.3,0,0v-7.9c0-0.3-0.3,0,0,0h16.4c0.3,0,0-0.3,0,0v7.9c0,0.3,0.3,0,0,0H1031.8z"
		/>
	<path class="st5" d="M1065.8,90.7h-8.2c-0.3,0,0,0.3,0,0v-7.9c0-0.3-0.3,0,0,0h16.4c0.3,0,0-0.3,0,0v7.9c0,0.3,0.3,0,0,0H1065.8z"
		/>
	<path class="st5" d="M1099.8,90.7h-8.2c-0.3,0,0,0.3,0,0v-7.9c0-0.3-0.3,0,0,0h16.4c0.3,0,0-0.3,0,0v7.9c0,0.3,0.3,0,0,0H1099.8z"
		/>
	<path class="st5" d="M1133.9,90.7h-8.2c-0.3,0,0,0.3,0,0v-7.9c0-0.3-0.3,0,0,0h16.4c0.3,0,0-0.3,0,0v7.9c0,0.3,0.3,0,0,0H1133.9z"
		/>
	<path class="st5" d="M1167.9,90.7h-8.2c-0.3,0,0,0.3,0,0v-7.9c0-0.3-0.3,0,0,0h16.4c0.3,0,0-0.3,0,0v7.9c0,0.3,0.3,0,0,0H1167.9z"
		/>
	<path class="st5" d="M1201.9,90.7h-8.2c-0.3,0,0,0.3,0,0v-7.9c0-0.3-0.3,0,0,0h16.4c0.3,0,0-0.3,0,0v7.9c0,0.3,0.3,0,0,0H1201.9z"
		/>
	<path class="st5" d="M1235.9,90.7h-8.2c-0.3,0,0,0.3,0,0v-7.9c0-0.3-0.3,0,0,0h16.4c0.3,0,0-0.3,0,0v7.9c0,0.3,0.3,0,0,0H1235.9z"
		/>
	<path class="st5" d="M1269.9,90.7h-8.2c-0.3,0,0,0.3,0,0v-7.9c0-0.3-0.3,0,0,0h16.4c0.3,0,0-0.3,0,0v7.9c0,0.3,0.3,0,0,0H1269.9z"
		/>
	<path class="st5" d="M1303.9,90.7h-8.2c-0.3,0,0,0.3,0,0v-7.9c0-0.3-0.3,0,0,0h16.4c0.3,0,0-0.3,0,0v7.9c0,0.3,0.3,0,0,0H1303.9z"
		/>
	<path class="st5" d="M1338,90.7h-8.2c-0.3,0,0,0.3,0,0v-7.9c0-0.3-0.3,0,0,0h16.4c0.3,0,0-0.3,0,0v7.9c0,0.3,0.3,0,0,0H1338z"/>
	<path class="st5" d="M1372,90.7h-8.2c-0.3,0,0,0.3,0,0v-7.9c0-0.3-0.3,0,0,0h16.4c0.3,0,0-0.3,0,0v7.9c0,0.3,0.3,0,0,0H1372z"/>
	<path class="st5" d="M1406,90.7h-8.2c-0.3,0,0,0.3,0,0v-7.9c0-0.3-0.3,0,0,0h16.4c0.3,0,0-0.3,0,0v7.9c0,0.3,0.3,0,0,0H1406z"/>
	<path class="st5" d="M1440,90.7h-8.2c-0.3,0,0,0.3,0,0v-7.9c0-0.3-0.3,0,0,0h16.4c0.3,0,0-0.3,0,0v7.9c0,0.3,0.3,0,0,0H1440z"/>
	<text transform="matrix(1 0 0 1 1120.9355 68.4084)" class="st1 st2 st4">Base</text>
	<path class="st0" d="M786.6,99.8h694.5h17c0.2,0,0.3-0.1,0.3-0.3v-17V45.6v-17c0-0.2-0.1-0.3-0.3-0.3h-17H786.6h-17
		c-0.2,0-0.3,0.1-0.3,0.3v17v36.9v17c0,0.2,0.1,0.3,0.3,0.3H786.6"/>
	<path class="st5" d="M1489.3,64.1v8.2c0,0.3,0.3,0,0,0h-7.9c-0.3,0,0,0.3,0,0V55.8c0-0.3-0.3,0,0,0h7.9c0.3,0,0-0.3,0,0V64.1z"/>
	<path class="st5" d="M1440,37.4h8.2c0.3,0,0-0.3,0,0v7.9c0,0.3,0.3,0,0,0h-16.4c-0.3,0,0,0.3,0,0v-7.9c0-0.3-0.3,0,0,0H1440z"/>
	<path class="st5" d="M1406,37.4h8.2c0.3,0,0-0.3,0,0v7.9c0,0.3,0.3,0,0,0h-16.4c-0.3,0,0,0.3,0,0v-7.9c0-0.3-0.3,0,0,0H1406z"/>
	<path class="st5" d="M1372,37.4h8.2c0.3,0,0-0.3,0,0v7.9c0,0.3,0.3,0,0,0h-16.4c-0.3,0,0,0.3,0,0v-7.9c0-0.3-0.3,0,0,0H1372z"/>
	<path class="st5" d="M1338,37.4h8.2c0.3,0,0-0.3,0,0v7.9c0,0.3,0.3,0,0,0h-16.4c-0.3,0,0,0.3,0,0v-7.9c0-0.3-0.3,0,0,0H1338z"/>
	<path class="st5" d="M1303.9,37.4h8.2c0.3,0,0-0.3,0,0v7.9c0,0.3,0.3,0,0,0h-16.4c-0.3,0,0,0.3,0,0v-7.9c0-0.3-0.3,0,0,0H1303.9z"
		/>
	<path class="st5" d="M1269.9,37.4h8.2c0.3,0,0-0.3,0,0v7.9c0,0.3,0.3,0,0,0h-16.4c-0.3,0,0,0.3,0,0v-7.9c0-0.3-0.3,0,0,0H1269.9z"
		/>
	<path class="st5" d="M1235.9,37.4h8.2c0.3,0,0-0.3,0,0v7.9c0,0.3,0.3,0,0,0h-16.4c-0.3,0,0,0.3,0,0v-7.9c0-0.3-0.3,0,0,0H1235.9z"
		/>
	<path class="st5" d="M1201.9,37.4h8.2c0.3,0,0-0.3,0,0v7.9c0,0.3,0.3,0,0,0h-16.4c-0.3,0,0,0.3,0,0v-7.9c0-0.3-0.3,0,0,0H1201.9z"
		/>
	<path class="st5" d="M1167.9,37.4h8.2c0.3,0,0-0.3,0,0v7.9c0,0.3,0.3,0,0,0h-16.4c-0.3,0,0,0.3,0,0v-7.9c0-0.3-0.3,0,0,0H1167.9z"
		/>
	<path class="st5" d="M1133.9,37.4h8.2c0.3,0,0-0.3,0,0v7.9c0,0.3,0.3,0,0,0h-16.4c-0.3,0,0,0.3,0,0v-7.9c0-0.3-0.3,0,0,0H1133.9z"
		/>
	<path class="st5" d="M1099.8,37.4h8.2c0.3,0,0-0.3,0,0v7.9c0,0.3,0.3,0,0,0h-16.4c-0.3,0,0,0.3,0,0v-7.9c0-0.3-0.3,0,0,0H1099.8z"
		/>
	<path class="st5" d="M1065.8,37.4h8.2c0.3,0,0-0.3,0,0v7.9c0,0.3,0.3,0,0,0h-16.4c-0.3,0,0,0.3,0,0v-7.9c0-0.3-0.3,0,0,0H1065.8z"
		/>
	<path class="st5" d="M1031.8,37.4h8.2c0.3,0,0-0.3,0,0v7.9c0,0.3,0.3,0,0,0h-16.4c-0.3,0,0,0.3,0,0v-7.9c0-0.3-0.3,0,0,0H1031.8z"
		/>
	<path class="st5" d="M997.8,37.4h8.2c0.3,0,0-0.3,0,0v7.9c0,0.3,0.3,0,0,0h-16.4c-0.3,0,0,0.3,0,0v-7.9c0-0.3-0.3,0,0,0H997.8z"/>
	<path class="st5" d="M963.8,37.4h8.2c0.3,0,0-0.3,0,0v7.9c0,0.3,0.3,0,0,0h-16.4c-0.3,0,0,0.3,0,0v-7.9c0-0.3-0.3,0,0,0H963.8z"/>
	<path class="st5" d="M929.8,37.4h8.2c0.3,0,0-0.3,0,0v7.9c0,0.3,0.3,0,0,0h-16.4c-0.3,0,0,0.3,0,0v-7.9c0-0.3-0.3,0,0,0H929.8z"/>
	<path class="st5" d="M895.7,37.4h8.2c0.3,0,0-0.3,0,0v7.9c0,0.3,0.3,0,0,0h-16.4c-0.3,0,0,0.3,0,0v-7.9c0-0.3-0.3,0,0,0H895.7z"/>
	<path class="st5" d="M861.7,37.4h8.2c0.3,0,0-0.3,0,0v7.9c0,0.3,0.3,0,0,0h-16.4c-0.3,0,0,0.3,0,0v-7.9c0-0.3-0.3,0,0,0H861.7z"/>
	<path class="st5" d="M827.7,37.4h8.2c0.3,0,0-0.3,0,0v7.9c0,0.3,0.3,0,0,0h-16.4c-0.3,0,0,0.3,0,0v-7.9c0-0.3-0.3,0,0,0H827.7z"/>
	<path class="st5" d="M778.4,64.1v-8.2c0-0.3-0.3,0,0,0h7.9c0.3,0,0-0.3,0,0v16.4c0,0.3,0.3,0,0,0h-7.9c-0.3,0,0,0.3,0,0V64.1z"/>
</g>
<g>
	<circle class="st6" cx="380.6" cy="156.8" r="4.3"/>
	<circle class="st6" cx="607.4" cy="156.8" r="4.3"/>
	<circle class="st6" cx="380.6" cy="270.2" r="4.3"/>
	<circle class="st6" cx="607.4" cy="270.2" r="4.3"/>
</g>
<rect x="70.3" y="337.3" class="st6" width="677.5" height="175.8"/>
<rect x="915.6" y="249.4" class="st7" width="669" height="175.7"/>
<g>
	<circle class="st8" cx="907.1" cy="242.4" r="4.3"/>
	<circle class="st8" cx="1593.1" cy="242.4" r="4.3"/>
	<circle class="st8" cx="1593.1" cy="432.3" r="4.3"/>
	<circle class="st8" cx="909.9" cy="432.3" r="4.3"/>
</g>
<rect x="892.9" y="226.8" class="st8" width="714.3" height="221.1"/>
</svg>
